<svg width="200" height="25" viewBox="0 0 200 25" fill="none" xmlns="http://www.w3.org/2000/svg">
<path d="M8.35199 1.96C9.39199 1.96 10.312 2.112 11.112 2.416C11.928 2.72 12.696 3.176 13.416 3.784L11.544 6.016C11.048 5.632 10.56 5.344 10.08 5.152C9.59999 4.96 9.08799 4.864 8.54399 4.864C7.42399 4.864 6.53599 5.336 5.87999 6.28C5.23999 7.224 4.91999 8.68 4.91999 10.648C4.91999 12.584 5.23999 14.024 5.87999 14.968C6.53599 15.896 7.43999 16.36 8.59199 16.36C9.19999 16.36 9.75199 16.248 10.248 16.024C10.744 15.784 11.28 15.448 11.856 15.016L13.608 17.272C12.984 17.896 12.224 18.408 11.328 18.808C10.448 19.208 9.47199 19.408 8.39999 19.408C6.86399 19.408 5.52799 19.072 4.39199 18.4C3.25599 17.728 2.36799 16.736 1.72799 15.424C1.10399 14.096 0.791992 12.504 0.791992 10.648C0.791992 8.84 1.11199 7.28 1.75199 5.968C2.40799 4.656 3.30399 3.664 4.43999 2.992C5.59199 2.304 6.89599 1.96 8.35199 1.96Z" fill="black"/>
<path d="M25.1863 15.304C25.1863 15.784 25.2503 16.136 25.3783 16.36C25.5223 16.584 25.7463 16.752 26.0503 16.864L25.2583 19.336C24.4743 19.272 23.8343 19.104 23.3383 18.832C22.8423 18.544 22.4583 18.096 22.1863 17.488C21.3543 18.768 20.0743 19.408 18.3463 19.408C17.0823 19.408 16.0743 19.04 15.3223 18.304C14.5703 17.568 14.1943 16.608 14.1943 15.424C14.1943 14.032 14.7063 12.968 15.7303 12.232C16.7543 11.496 18.2343 11.128 20.1703 11.128H21.4663V10.576C21.4663 9.824 21.3063 9.312 20.9863 9.04C20.6663 8.752 20.1063 8.608 19.3063 8.608C18.8903 8.608 18.3863 8.672 17.7943 8.8C17.2023 8.912 16.5943 9.072 15.9703 9.28L15.1063 6.784C15.9063 6.48 16.7223 6.248 17.5543 6.088C18.4023 5.928 19.1863 5.848 19.9063 5.848C21.7303 5.848 23.0663 6.224 23.9143 6.976C24.7623 7.728 25.1863 8.856 25.1863 10.36V15.304ZM19.4503 16.696C20.3143 16.696 20.9863 16.288 21.4663 15.472V13.216H20.5303C19.6663 13.216 19.0183 13.368 18.5863 13.672C18.1703 13.976 17.9623 14.448 17.9623 15.088C17.9623 15.6 18.0903 16 18.3463 16.288C18.6183 16.56 18.9863 16.696 19.4503 16.696Z" fill="black"/>
<path d="M35.1187 5.896C35.5827 5.896 36.0067 5.952 36.3907 6.064L35.7907 9.736C35.3107 9.624 34.9267 9.568 34.6387 9.568C33.8867 9.568 33.3107 9.832 32.9107 10.36C32.5267 10.872 32.2227 11.648 31.9987 12.688V19H28.2067V6.256H31.5187L31.8307 8.728C32.1187 7.848 32.5507 7.16 33.1267 6.664C33.7187 6.152 34.3827 5.896 35.1187 5.896Z" fill="black"/>
<path d="M47.1238 15.304C47.1238 15.784 47.1878 16.136 47.3158 16.36C47.4598 16.584 47.6838 16.752 47.9878 16.864L47.1958 19.336C46.4118 19.272 45.7718 19.104 45.2758 18.832C44.7798 18.544 44.3958 18.096 44.1238 17.488C43.2918 18.768 42.0118 19.408 40.2838 19.408C39.0198 19.408 38.0118 19.04 37.2598 18.304C36.5078 17.568 36.1318 16.608 36.1318 15.424C36.1318 14.032 36.6438 12.968 37.6678 12.232C38.6918 11.496 40.1718 11.128 42.1078 11.128H43.4038V10.576C43.4038 9.824 43.2438 9.312 42.9238 9.04C42.6038 8.752 42.0438 8.608 41.2438 8.608C40.8278 8.608 40.3238 8.672 39.7318 8.8C39.1398 8.912 38.5318 9.072 37.9078 9.28L37.0438 6.784C37.8438 6.48 38.6598 6.248 39.4918 6.088C40.3398 5.928 41.1238 5.848 41.8438 5.848C43.6678 5.848 45.0038 6.224 45.8518 6.976C46.6998 7.728 47.1238 8.856 47.1238 10.36V15.304ZM41.3878 16.696C42.2518 16.696 42.9238 16.288 43.4038 15.472V13.216H42.4678C41.6038 13.216 40.9558 13.368 40.5238 13.672C40.1078 13.976 39.8998 14.448 39.8998 15.088C39.8998 15.6 40.0278 16 40.2838 16.288C40.5558 16.56 40.9238 16.696 41.3878 16.696Z" fill="black"/>
<path d="M64.2322 5.848C65.2402 5.848 66.0482 6.192 66.6562 6.88C67.2642 7.552 67.5682 8.488 67.5682 9.688V19H63.7762V10.336C63.7762 9.2 63.4162 8.632 62.6962 8.632C62.2962 8.632 61.9442 8.768 61.6402 9.04C61.3362 9.312 61.0402 9.728 60.7522 10.288V19H56.9602V10.336C56.9602 9.2 56.6002 8.632 55.8802 8.632C55.4962 8.632 55.1442 8.776 54.8242 9.064C54.5202 9.336 54.2242 9.744 53.9362 10.288V19H50.1442V6.256H53.4562L53.7202 7.744C54.2162 7.104 54.7602 6.632 55.3522 6.328C55.9602 6.008 56.6482 5.848 57.4162 5.848C58.1362 5.848 58.7522 6.024 59.2642 6.376C59.7922 6.728 60.1762 7.224 60.4162 7.864C60.9282 7.176 61.4882 6.672 62.0962 6.352C62.7202 6.016 63.4322 5.848 64.2322 5.848Z" fill="black"/>
<path d="M81.5297 12.376C81.5297 12.904 81.5057 13.36 81.4577 13.744H73.5617C73.6897 14.816 73.9937 15.568 74.4737 16C74.9537 16.432 75.6177 16.648 76.4657 16.648C76.9777 16.648 77.4737 16.56 77.9537 16.384C78.4337 16.192 78.9537 15.904 79.5137 15.52L81.0737 17.632C79.5857 18.816 77.9297 19.408 76.1057 19.408C74.0417 19.408 72.4577 18.8 71.3537 17.584C70.2497 16.368 69.6977 14.736 69.6977 12.688C69.6977 11.392 69.9297 10.232 70.3937 9.208C70.8577 8.168 71.5377 7.352 72.4337 6.76C73.3297 6.152 74.4017 5.848 75.6497 5.848C77.4897 5.848 78.9297 6.424 79.9697 7.576C81.0097 8.728 81.5297 10.328 81.5297 12.376ZM77.8097 11.296C77.7777 9.344 77.0897 8.368 75.7457 8.368C75.0897 8.368 74.5777 8.608 74.2097 9.088C73.8577 9.568 73.6417 10.36 73.5617 11.464H77.8097V11.296Z" fill="black"/>
<path d="M87.0439 19.408C85.9399 19.408 85.0759 19.096 84.4519 18.472C83.8439 17.832 83.5399 16.928 83.5399 15.76V1.192L87.3319 0.783997V15.616C87.3319 16.144 87.5479 16.408 87.9799 16.408C88.2039 16.408 88.4119 16.368 88.6039 16.288L89.3479 18.976C88.6599 19.264 87.8919 19.408 87.0439 19.408Z" fill="black"/>
<path d="M96.1877 5.848C98.1397 5.848 99.6677 6.448 100.772 7.648C101.876 8.832 102.428 10.496 102.428 12.64C102.428 14 102.172 15.192 101.66 16.216C101.164 17.224 100.444 18.008 99.4997 18.568C98.5717 19.128 97.4677 19.408 96.1877 19.408C94.2517 19.408 92.7237 18.816 91.6037 17.632C90.4997 16.432 89.9477 14.76 89.9477 12.616C89.9477 11.256 90.1957 10.072 90.6917 9.064C91.2037 8.04 91.9237 7.248 92.8517 6.688C93.7957 6.128 94.9077 5.848 96.1877 5.848ZM96.1877 8.632C95.4197 8.632 94.8437 8.96 94.4597 9.616C94.0757 10.256 93.8837 11.256 93.8837 12.616C93.8837 14.008 94.0677 15.024 94.4357 15.664C94.8197 16.304 95.4037 16.624 96.1877 16.624C96.9557 16.624 97.5317 16.304 97.9157 15.664C98.2997 15.008 98.4917 14 98.4917 12.64C98.4917 11.248 98.2997 10.232 97.9157 9.592C97.5477 8.952 96.9717 8.632 96.1877 8.632Z" fill="black"/>
<path d="M105.841 15.064C106.449 15.064 106.961 15.272 107.377 15.688C107.793 16.104 108.001 16.616 108.001 17.224C108.001 17.576 107.945 17.928 107.833 18.28C107.721 18.632 107.521 19.128 107.233 19.768L105.721 23.248H103.585L104.617 19.024C104.313 18.816 104.073 18.56 103.897 18.256C103.737 17.936 103.657 17.592 103.657 17.224C103.657 16.616 103.865 16.104 104.281 15.688C104.697 15.272 105.217 15.064 105.841 15.064Z" fill="black"/>
<path d="M123.902 18.4C123.438 18.72 122.894 18.968 122.27 19.144C121.662 19.32 121.054 19.408 120.446 19.408C117.662 19.392 116.27 17.856 116.27 14.8V8.896H114.47V6.256H116.27V3.496L120.062 3.064V6.256H122.99L122.582 8.896H120.062V14.752C120.062 15.344 120.158 15.768 120.35 16.024C120.542 16.28 120.846 16.408 121.262 16.408C121.694 16.408 122.15 16.272 122.63 16L123.902 18.4Z" fill="black"/>
<path d="M132.632 5.848C133.736 5.848 134.6 6.184 135.224 6.856C135.848 7.528 136.16 8.472 136.16 9.688V19H132.368V10.336C132.368 9.696 132.264 9.256 132.056 9.016C131.848 8.76 131.552 8.632 131.168 8.632C130.4 8.632 129.664 9.176 128.96 10.264V19H125.168V1.192L128.96 0.807998V7.624C129.488 7.032 130.048 6.592 130.64 6.304C131.232 6 131.896 5.848 132.632 5.848Z" fill="black"/>
<path d="M150.131 12.376C150.131 12.904 150.107 13.36 150.059 13.744H142.163C142.291 14.816 142.595 15.568 143.075 16C143.555 16.432 144.219 16.648 145.067 16.648C145.579 16.648 146.075 16.56 146.555 16.384C147.035 16.192 147.555 15.904 148.115 15.52L149.675 17.632C148.187 18.816 146.531 19.408 144.707 19.408C142.643 19.408 141.059 18.8 139.955 17.584C138.851 16.368 138.299 14.736 138.299 12.688C138.299 11.392 138.531 10.232 138.995 9.208C139.459 8.168 140.139 7.352 141.035 6.76C141.931 6.152 143.003 5.848 144.251 5.848C146.091 5.848 147.531 6.424 148.571 7.576C149.611 8.728 150.131 10.328 150.131 12.376ZM146.411 11.296C146.379 9.344 145.691 8.368 144.347 8.368C143.691 8.368 143.179 8.608 142.811 9.088C142.459 9.568 142.243 10.36 142.163 11.464H146.411V11.296Z" fill="black"/>
<path d="M162.661 2.368C165.269 2.368 167.357 2.96 168.925 4.144C170.509 5.312 171.301 7.464 171.301 10.6C171.301 13.688 170.533 15.864 168.997 17.128C167.461 18.376 165.469 19 163.021 19H158.029V2.368H162.661ZM161.965 5.224V16.144H163.261C164.557 16.144 165.541 15.744 166.213 14.944C166.885 14.128 167.221 12.68 167.221 10.6C167.221 9.176 167.053 8.072 166.717 7.288C166.381 6.504 165.925 5.968 165.349 5.68C164.773 5.376 164.061 5.224 163.213 5.224H161.965Z" fill="black"/>
<path d="M179.11 5.848C181.062 5.848 182.59 6.448 183.694 7.648C184.798 8.832 185.35 10.496 185.35 12.64C185.35 14 185.094 15.192 184.582 16.216C184.086 17.224 183.366 18.008 182.422 18.568C181.494 19.128 180.39 19.408 179.11 19.408C177.174 19.408 175.646 18.816 174.526 17.632C173.422 16.432 172.87 14.76 172.87 12.616C172.87 11.256 173.118 10.072 173.614 9.064C174.126 8.04 174.846 7.248 175.774 6.688C176.718 6.128 177.83 5.848 179.11 5.848ZM179.11 8.632C178.342 8.632 177.766 8.96 177.382 9.616C176.998 10.256 176.806 11.256 176.806 12.616C176.806 14.008 176.99 15.024 177.358 15.664C177.742 16.304 178.326 16.624 179.11 16.624C179.878 16.624 180.454 16.304 180.838 15.664C181.222 15.008 181.414 14 181.414 12.64C181.414 11.248 181.222 10.232 180.838 9.592C180.47 8.952 179.894 8.632 179.11 8.632Z" fill="black"/>
<path d="M199.341 7C198.509 7.336 197.285 7.504 195.669 7.504C196.501 7.856 197.109 8.288 197.493 8.8C197.877 9.312 198.069 9.976 198.069 10.792C198.069 11.608 197.853 12.344 197.421 13C196.989 13.64 196.365 14.144 195.549 14.512C194.749 14.88 193.805 15.064 192.717 15.064C192.205 15.064 191.717 15.016 191.253 14.92C191.125 14.984 191.021 15.088 190.941 15.232C190.877 15.36 190.845 15.496 190.845 15.64C190.845 15.88 190.933 16.072 191.109 16.216C191.301 16.344 191.677 16.408 192.237 16.408H194.157C195.133 16.408 195.989 16.568 196.725 16.888C197.461 17.208 198.029 17.648 198.429 18.208C198.829 18.768 199.029 19.4 199.029 20.104C199.029 21.432 198.453 22.464 197.301 23.2C196.165 23.952 194.517 24.328 192.357 24.328C190.805 24.328 189.581 24.16 188.685 23.824C187.789 23.504 187.157 23.048 186.789 22.456C186.437 21.864 186.261 21.12 186.261 20.224H189.669C189.669 20.608 189.741 20.912 189.885 21.136C190.045 21.36 190.325 21.528 190.725 21.64C191.125 21.752 191.701 21.808 192.453 21.808C193.493 21.808 194.213 21.68 194.613 21.424C195.013 21.184 195.213 20.832 195.213 20.368C195.213 19.984 195.061 19.68 194.757 19.456C194.453 19.232 193.997 19.12 193.389 19.12H191.541C190.229 19.12 189.245 18.888 188.589 18.424C187.949 17.944 187.629 17.336 187.629 16.6C187.629 16.136 187.765 15.688 188.037 15.256C188.309 14.808 188.677 14.44 189.141 14.152C188.341 13.72 187.757 13.216 187.389 12.64C187.037 12.048 186.861 11.336 186.861 10.504C186.861 9.08 187.373 7.952 188.397 7.12C189.421 6.272 190.773 5.848 192.453 5.848C193.733 5.88 194.813 5.752 195.693 5.464C196.589 5.176 197.509 4.752 198.453 4.192L199.341 7ZM192.549 8.344C191.957 8.344 191.485 8.536 191.133 8.92C190.797 9.288 190.629 9.8 190.629 10.456C190.629 11.144 190.797 11.68 191.133 12.064C191.485 12.432 191.957 12.616 192.549 12.616C193.173 12.616 193.645 12.432 193.965 12.064C194.301 11.696 194.469 11.144 194.469 10.408C194.469 9.032 193.829 8.344 192.549 8.344Z" fill="black"/>
</svg>
